<?xml version="1.0" encoding="UTF-8" standalone="no"?>
<svg
   width="100%"
   height="100%"
   viewBox="0 0 513 513"
   version="1.1"
   xml:space="preserve"
   style="fill-rule:evenodd;clip-rule:evenodd;stroke-linejoin:round;stroke-miterlimit:2;"
   id="svg101"
   sodipodi:docname="favicon.svg"
   inkscape:version="1.1.2 (0a00cf5339, 2022-02-04)"
   xmlns:inkscape="http://www.inkscape.org/namespaces/inkscape"
   xmlns:sodipodi="http://sodipodi.sourceforge.net/DTD/sodipodi-0.dtd"
   xmlns="http://www.w3.org/2000/svg"
   xmlns:svg="http://www.w3.org/2000/svg"
   xmlns:serif="http://www.serif.com/"><defs
   id="defs105" /><sodipodi:namedview
   id="namedview103"
   pagecolor="#ffffff"
   bordercolor="#666666"
   borderopacity="1.0"
   inkscape:pageshadow="2"
   inkscape:pageopacity="0.0"
   inkscape:pagecheckerboard="0"
   showgrid="false"
   inkscape:zoom="1.6374269"
   inkscape:cx="256.5"
   inkscape:cy="256.5"
   inkscape:window-width="1920"
   inkscape:window-height="1025"
   inkscape:window-x="0"
   inkscape:window-y="0"
   inkscape:window-maximized="1"
   inkscape:current-layer="symbol" />
    <g
   transform="matrix(1,0,0,1,-4470,-638)"
   id="g99">
        <g
   transform="matrix(0.82183,0,0,1.58025,3534.72,-68.098)"
   id="g97">
            <rect
   id="AY_symbol_greenW_full"
   x="1139"
   y="447"
   width="623"
   height="324"
   style="fill:none;" />
            <g
   id="AY_symbol_greenW_full1"
   serif:id="AY_symbol_greenW_full">
                <g
   id="symbol"
   transform="matrix(1.77413,0,0,0.922664,-1122.88,47.0979)">
                    <g
   transform="matrix(2,0,0,2,1350.5,622.334)"
   id="g77">
                        <path
   d="M32.679,-73.27L-32.679,39.936C-40.377,53.269 -30.755,69.936 -15.359,69.936L115.359,69.936C130.755,69.936 140.378,53.269 132.68,39.935L100,-16.667L67.32,-73.27C59.622,-86.603 40.377,-86.603 32.679,-73.27Z"
   style="fill:rgb(0,215,160);fill-rule:nonzero;"
   id="path75" />
                    </g>
                    <g
   transform="matrix(-1.73205,-1,-1,1.73205,1377,566.893)"
   id="g81"
   style="fill:#000000">
                        <rect
   x="-38.053"
   y="10.196"
   width="44"
   height="12.001"
   style="fill:#000000"
   id="rect79" />
                    </g>
                    <g
   transform="matrix(-0.99995,-1.73208,-1.73208,0.99995,1556.5,622.607)"
   id="g85"
   style="fill:#000000">
                        <rect
   x="10.051"
   y="-5.803"
   width="12.002"
   height="43.999"
   style="fill:#000000"
   id="rect83" />
                    </g>
                    <g
   transform="matrix(-2,0,0,2,2292.39,232.135)"
   id="g89"
   style="fill:#000000">
                        <rect
   x="414.945"
   y="221.035"
   width="12"
   height="44"
   style="fill:#000000"
   id="rect87" />
                    </g>
                    <g
   transform="matrix(0,-2,-2,0,1450.5,530.607)"
   id="g93">
                        <path
   d="M-12,-12C-18.627,-12 -24,-6.627 -24,0C-24,6.627 -18.627,12 -12,12C-5.373,12 0,6.627 0,0C0,-6.627 -5.373,-12 -12,-12"
   style="fill-rule:nonzero;fill:#ffffff"
   id="path91" />
                    </g>
                </g>
            </g>
        </g>
    </g>
</svg>
