<?xml version="1.0" encoding="UTF-8" standalone="no"?>
<!DOCTYPE svg PUBLIC "-//W3C//DTD SVG 1.1//EN" "http://www.w3.org/Graphics/SVG/1.1/DTD/svg11.dtd">
<svg width="100%" height="100%" viewBox="0 0 535 534" version="1.1" xmlns="http://www.w3.org/2000/svg" xmlns:xlink="http://www.w3.org/1999/xlink" xml:space="preserve" xmlns:serif="http://www.serif.com/" style="fill-rule:evenodd;clip-rule:evenodd;stroke-linejoin:round;stroke-miterlimit:2;">
    <g transform="matrix(1,0,0,1,-1007,-19693)">
        <g id="icon_GW" transform="matrix(0.991665,0,0,0.991665,-23214.9,2112.21)">
            <rect x="24426.5" y="17729" width="537.816" height="537.816" style="fill:none;"/>
            <clipPath id="_clip1">
                <rect x="24426.5" y="17729" width="537.816" height="537.816"/>
            </clipPath>
            <g clip-path="url(#_clip1)">
                <g id="Icon_texturedark" transform="matrix(5.09911,0,0,5.18765,-157401,-84854.1)">
                    <g transform="matrix(1.24029,0,0,1.21912,35746.5,19774.5)">
                        <path d="M0,85.039L-56.693,85.039C-64.521,85.039 -70.866,78.694 -70.866,70.866L-70.866,14.173C-70.866,6.345 -64.521,0 -56.693,0L0,0C7.828,0 14.173,6.345 14.173,14.173L14.173,70.866C14.173,78.694 7.828,85.039 0,85.039" style="fill:rgb(0,214,161);fill-rule:nonzero;"/>
                    </g>
                    <g id="AY_logo" transform="matrix(0.313517,0,0,0.308165,35579.4,19748.1)">
                        <g transform="matrix(-1,0,0,1,659.663,-233.656)">
                            <rect x="311.609" y="396.243" width="36.445" height="36.446" style="fill:white;"/>
                        </g>
                        <g transform="matrix(-1,0,0,1,732.553,-160.763)">
                            <rect x="348.054" y="359.797" width="36.445" height="36.445" style="fill:white;"/>
                        </g>
                        <g transform="matrix(0,-1,-1,0,402.722,290.147)">
                            <path d="M-18.223,-18.223C-28.287,-18.223 -36.445,-10.064 -36.445,0C-36.445,10.064 -28.287,18.223 -18.223,18.223C-8.159,18.223 0,10.064 0,0C0,-10.064 -8.159,-18.223 -18.223,-18.223" style="fill:white;fill-rule:nonzero;"/>
                        </g>
                        <g transform="matrix(0,-1,-1,0,402.722,344.815)">
                            <path d="M-18.223,-18.223C-28.287,-18.223 -36.445,-10.064 -36.445,0C-36.445,10.064 -28.287,18.223 -18.223,18.223C-8.159,18.223 0,10.064 0,0C0,-10.064 -8.159,-18.223 -18.223,-18.223" style="fill:white;fill-rule:nonzero;"/>
                        </g>
                        <g transform="matrix(1,0,0,1,493.836,271.924)">
                            <path d="M0,-145.782L-109.336,-36.446L-109.336,0L-72.891,0L36.445,-109.337L36.445,-145.782L0,-145.782Z" style="fill:white;fill-rule:nonzero;"/>
                        </g>
                    </g>
                </g>
            </g>
        </g>
    </g>
</svg>
