<?xml version="1.0" standalone="no"?>
<!DOCTYPE svg PUBLIC "-//W3C//DTD SVG 20010904//EN"
 "http://www.w3.org/TR/2001/REC-SVG-20010904/DTD/svg10.dtd">
<svg version="1.0" xmlns="http://www.w3.org/2000/svg"
 width="700.000000pt" height="700.000000pt" viewBox="0 0 700.000000 700.000000"
 preserveAspectRatio="xMidYMid meet">
<metadata>
Created by potrace 1.14, written by Peter Selinger 2001-2017
</metadata>
<g transform="translate(0.000000,700.000000) scale(0.100000,-0.100000)"
fill="#000000" stroke="none">
<path d="M3382 6408 c-326 -66 -532 -375 -472 -708 25 -142 132 -303 255 -385
31 -20 93 -51 138 -68 73 -27 94 -31 192 -31 88 -1 125 4 182 22 254 79 419
294 429 558 5 155 -34 276 -127 395 -53 66 -67 79 -149 133 -140 92 -280 118
-448 84z"/>
<path d="M1112 5179 c-9 -17 -29 -50 -43 -72 -14 -23 -75 -127 -134 -231 -87
-152 -106 -191 -94 -198 14 -9 74 -43 519 -300 129 -75 251 -145 270 -156 19
-11 51 -29 70 -40 19 -11 161 -93 315 -182 154 -90 300 -174 325 -188 25 -14
125 -72 223 -129 98 -56 181 -103 186 -103 4 0 16 17 28 38 11 20 77 135 146
255 70 119 127 221 127 225 0 4 -98 63 -218 131 -119 69 -282 163 -362 209
-80 47 -167 97 -195 112 -27 15 -139 80 -249 144 -109 64 -200 116 -202 116
-2 0 -32 17 -66 38 -35 21 -88 52 -118 69 -61 34 -261 150 -385 222 -134 80
-123 76 -143 40z"/>
<path d="M5740 5131 c-74 -43 -326 -188 -560 -323 -234 -135 -603 -348 -820
-473 -217 -125 -397 -229 -399 -231 -5 -5 7 -30 51 -106 18 -31 62 -108 98
-170 35 -62 69 -120 75 -130 5 -9 23 -39 39 -67 16 -28 32 -51 36 -51 7 0 105
56 228 129 29 17 55 31 58 31 3 0 17 9 32 19 15 10 284 166 597 347 314 180
667 383 784 451 118 68 216 125 218 127 2 2 -60 113 -137 246 -77 134 -140
246 -140 250 0 4 -6 12 -13 18 -9 8 -48 -10 -147 -67z"/>
<path d="M3205 2791 c-3 -2 -5 -502 -5 -1111 l0 -1107 303 1 302 1 1 1110 1
1111 -299 0 c-164 0 -301 -2 -303 -5z"/>
</g>
</svg>
