<svg width="173" height="29" viewBox="0 0 173 29" fill="none" xmlns="http://www.w3.org/2000/svg">
<g clip-path="url(#clip0_2725_1951)">
<path d="M85.9513 22.4369C87.4335 22.4369 88.6896 21.9344 89.6694 20.9044V22.3364C88.6896 23.1152 87.333 23.5925 85.9262 23.5925C82.3086 23.5925 79.3694 20.6281 79.3694 16.9854C79.3694 13.3428 82.3086 10.3784 85.9262 10.3784C87.333 10.3784 88.6896 10.8557 89.6694 11.6345V13.0664C88.6896 12.0364 87.4335 11.534 85.9513 11.534C82.9869 11.534 80.6004 13.9457 80.6004 16.9854C80.6004 20.0252 82.9869 22.4369 85.9513 22.4369ZM98.7073 23.5925C95.14 23.5925 92.2008 20.6281 92.2008 16.9854C92.2008 13.3428 95.14 10.3784 98.7073 10.3784C102.275 10.3784 105.214 13.3428 105.214 16.9854C105.214 20.6281 102.275 23.5925 98.7073 23.5925ZM98.7073 11.5089C95.7932 11.5089 93.4569 13.9457 93.4569 16.9854C93.4569 20.0252 95.7932 22.462 98.7073 22.462C101.621 22.462 103.958 20.0252 103.958 16.9854C103.958 13.9457 101.621 11.5089 98.7073 11.5089ZM110.117 15.6288V23.291H108.861V10.6798H110.117V12.9659C110.745 11.4837 112.328 10.3784 114.262 10.3784C117.277 10.3784 118.884 12.6645 118.884 15.3525V23.291H117.628V15.6037C117.628 13.3428 116.397 11.534 113.885 11.534C111.624 11.534 110.117 13.3679 110.117 15.6288ZM124.812 15.6288V23.291H123.556V10.6798H124.812V12.9659C125.44 11.4837 127.023 10.3784 128.957 10.3784C131.972 10.3784 133.58 12.6645 133.58 15.3525V23.291H132.324V15.6037C132.324 13.3428 131.093 11.534 128.58 11.534C126.319 11.534 124.812 13.3679 124.812 15.6288ZM137.121 16.9854C137.121 13.3428 140.01 10.3784 143.527 10.3784C147.27 10.3784 149.581 13.4935 149.531 17.1613H138.327C138.427 20.1759 140.789 22.462 144.029 22.462C145.863 22.462 147.597 21.7837 148.803 20.5025V21.8842C147.572 22.9644 145.838 23.5925 143.954 23.5925C140.01 23.5925 137.121 20.6532 137.121 16.9854ZM143.527 11.4837C140.914 11.4837 138.779 13.4684 138.377 16.1313H148.275C148.024 13.5688 146.29 11.4837 143.527 11.4837ZM158.496 22.4369C159.978 22.4369 161.234 21.9344 162.214 20.9044V22.3364C161.234 23.1152 159.877 23.5925 158.471 23.5925C154.853 23.5925 151.914 20.6281 151.914 16.9854C151.914 13.3428 154.853 10.3784 158.471 10.3784C159.877 10.3784 161.234 10.8557 162.214 11.6345V13.0664C161.234 12.0364 159.978 11.534 158.496 11.534C155.531 11.534 153.145 13.9457 153.145 16.9854C153.145 20.0252 155.531 22.4369 158.496 22.4369ZM167.559 19.5479C167.559 21.3064 168.388 22.4871 170.121 22.4871C171.076 22.4871 171.855 22.2108 172.533 21.6832V22.8639C172.03 23.2408 171.101 23.5925 170.021 23.5925C167.709 23.5925 166.303 22.06 166.303 19.6483V11.7601H163.991V10.6798H166.303V6.88643L167.559 6.2835V10.6798H171.629V11.7601H167.559V19.5479Z" fill="#003827"/>
<path d="M20.5631 23.2176H17.2476V10.3462H20.5631V11.8546C21.2413 10.8239 22.5727 10.0449 24.2055 10.0449C27.1693 10.0449 28.9027 12.0809 28.9027 14.9469V23.2176H25.5872V15.8264C25.5872 14.3184 24.7331 13.0362 23.0751 13.0362C21.4925 13.0362 20.5631 14.3184 20.5631 15.8519V23.2176Z" fill="black"/>
<path d="M35.635 16.7814C35.635 18.9937 37.2176 20.6781 39.2775 20.6781C41.3122 20.6781 42.9195 18.9937 42.9195 16.7814C42.9195 14.569 41.3122 12.9102 39.2775 12.9102C37.2176 12.9102 35.635 14.569 35.635 16.7814ZM46.1852 16.7814C46.1852 20.6027 43.4726 23.5186 39.9306 23.5186C38.0214 23.5186 36.4388 22.5381 35.7355 21.4072V28.4964H32.4196V10.3459H35.7355V12.1556C36.4388 11.0247 38.0214 10.0442 39.9306 10.0442C43.4726 10.0442 46.1852 12.9852 46.1852 16.7814Z" fill="black"/>
<path d="M57.0876 10.3462H60.4035V23.2176H57.0876V21.7092C56.4093 22.74 55.0779 23.5189 53.4455 23.5189C50.4813 23.5189 48.7982 21.4829 48.7982 18.6421V10.3462H52.1137V17.7873C52.1137 19.3209 52.9176 20.5779 54.5755 20.5779C56.1581 20.5779 57.0876 19.2957 57.0876 17.7873V10.3462Z" fill="black"/>
<path d="M69.8733 20.6529C70.6018 20.6529 71.255 20.4266 71.8076 19.9745V22.9155C71.1549 23.2926 70.1752 23.5189 69.2202 23.5189C66.6081 23.5189 64.6738 21.9857 64.6738 19.0439V12.9855H62.5637V10.3458H64.6738V7.35448L67.9897 6.29858V10.3458H71.4312V12.9855H67.9897V18.6919C67.9897 19.9745 68.6931 20.6529 69.8733 20.6529Z" fill="black"/>
<path d="M7.98774 10.3462L4.27493 16.7817L0.562111 10.3462H7.98774Z" fill="black"/>
<path d="M15.413 10.3462L11.7001 16.7817L7.98733 10.3462H15.413Z" fill="black"/>
<path d="M11.7001 16.7815L7.98733 23.217L4.27493 16.7815H11.7001Z" fill="black"/>
<path d="M7.98774 23.2178L4.27493 29.6533L0.562111 23.2178H7.98774Z" fill="white"/>
</g>
<defs>
<clipPath id="clip0_2725_1951">
<rect width="172.286" height="28.0465" fill="white" transform="translate(0.562126 0.858887)"/>
</clipPath>
</defs>
</svg>
