<?xml version="1.0" encoding="UTF-8" standalone="no"?>
<!DOCTYPE svg PUBLIC "-//W3C//DTD SVG 1.1//EN" "http://www.w3.org/Graphics/SVG/1.1/DTD/svg11.dtd">
<svg width="100%" height="100%" viewBox="0 0 1472 712" version="1.1" xmlns="http://www.w3.org/2000/svg" xmlns:xlink="http://www.w3.org/1999/xlink" xml:space="preserve" xmlns:serif="http://www.serif.com/" style="fill-rule:evenodd;clip-rule:evenodd;stroke-linejoin:round;stroke-miterlimit:2;">
    <g transform="matrix(1,0,0,1,-25733,-19378)">
        <g transform="matrix(1.74726,0,0,1.19562,25733.6,19378)">
            <rect id="ynput_logo_small_WG" x="0" y="0" width="841.89" height="595.276" style="fill:none;"/>
            <g id="ynput_logo_small_WG1" serif:id="ynput_logo_small_WG">
                <g transform="matrix(2.38469,0,0,3.48496,156.58,198.277)">
                    <path d="M0,-56.693L-32.732,0L-65.463,-56.693L0,-56.693Z" style="fill:white;fill-rule:nonzero;"/>
                </g>
                <g transform="matrix(2.38469,0,0,3.48496,312.69,198.277)">
                    <path d="M0,-56.693L-32.732,0L-65.463,-56.693L0,-56.693Z" style="fill:white;fill-rule:nonzero;"/>
                </g>
                <g transform="matrix(2.38469,0,0,3.48496,234.635,395.849)">
                    <path d="M0,-56.693L-32.732,0L-65.463,-56.693L0,-56.693Z" style="fill:white;fill-rule:nonzero;"/>
                </g>
                <g transform="matrix(2.38469,0,0,3.48496,156.58,593.421)">
                    <path d="M0,-56.693L-32.732,0L-65.463,-56.693L0,-56.693Z" style="fill:rgb(0,214,161);fill-rule:nonzero;"/>
                </g>
                <g transform="matrix(2.38469,0,0,3.48496,353.888,276.262)">
                    <path d="M0,11.937L-17.276,-22.378L-6.125,-22.378L5.422,1.336L16.962,-22.378L27.953,-22.378L-1.177,34.315L-11.937,34.315L0,11.937Z" style="fill:white;fill-rule:nonzero;"/>
                </g>
                <g transform="matrix(2.38469,0,0,3.48496,458.985,194.988)">
                    <path d="M0,41.147L-10.364,41.147L-10.364,0.943L0,0.943L0,5.656C2.123,2.436 6.285,0 11.387,0C20.652,0 26.073,6.362 26.073,15.313L26.073,41.147L15.709,41.147L15.709,18.063C15.709,13.35 13.037,9.345 7.858,9.345C2.909,9.345 0,13.35 0,18.139L0,41.147Z" style="fill:white;fill-rule:nonzero;"/>
                </g>
                <g transform="matrix(2.38469,0,0,3.48496,650.045,322.507)">
                    <path d="M0,-15.546C0,-3.609 -8.478,5.499 -19.552,5.499C-25.517,5.499 -30.466,2.436 -32.666,-1.096L-32.666,21.045L-43.03,21.045L-43.03,-35.648L-32.666,-35.648L-32.666,-29.996C-30.466,-33.528 -25.517,-36.591 -19.552,-36.591C-8.478,-36.591 0,-27.403 0,-15.546M-32.979,-15.546C-32.979,-8.634 -28.03,-3.376 -21.592,-3.376C-15.23,-3.376 -10.204,-8.634 -10.204,-15.546C-10.204,-22.458 -15.23,-27.64 -21.592,-27.64C-28.03,-27.64 -32.979,-22.458 -32.979,-15.546" style="fill:white;fill-rule:nonzero;"/>
                </g>
                <g transform="matrix(2.38469,0,0,3.48496,731.387,341.672)">
                    <path d="M0,-41.147L10.364,-41.147L10.364,-0.943L0,-0.943L0,-5.656C-2.123,-2.436 -6.285,0 -11.387,0C-20.652,0 -25.914,-6.362 -25.914,-15.233L-25.914,-41.147L-15.55,-41.147L-15.55,-17.906C-15.55,-13.114 -13.037,-9.188 -7.852,-9.188C-2.903,-9.188 0,-13.194 0,-17.906L0,-41.147Z" style="fill:white;fill-rule:nonzero;"/>
                </g>
                <g transform="matrix(2.38469,0,0,3.48496,826.757,185.407)">
                    <path d="M0,35.888C2.276,35.888 4.316,35.182 6.042,33.765L6.042,42.953C4.003,44.133 0.94,44.839 -2.046,44.839C-10.211,44.839 -16.253,40.047 -16.253,30.863L-16.253,11.937L-22.851,11.937L-22.851,3.693L-16.253,3.693L-16.253,-5.652L-5.888,-8.951L-5.888,3.693L4.866,3.693L4.866,11.937L-5.888,11.937L-5.888,29.763C-5.888,33.765 -3.689,35.888 0,35.888" style="fill:white;fill-rule:nonzero;"/>
                </g>
            </g>
        </g>
    </g>
</svg>
