<svg width="173"  viewBox="0 0 1410 253" fill="none" xmlns="http://www.w3.org/2000/svg">
<path d="M199.039 188.012H166.045V59.9221H199.039V74.9332C205.789 64.6756 219.038 56.9241 235.287 56.9241C264.782 56.9241 282.031 77.1848 282.031 105.706V188.012H249.037V114.458C249.037 99.4512 240.537 86.6918 224.038 86.6918C208.289 86.6918 199.039 99.4512 199.039 114.712V188.012Z" fill="black"/>
<path d="M349.028 123.965C349.028 145.981 364.777 162.744 385.276 162.744C405.525 162.744 421.52 145.981 421.52 123.965C421.52 101.949 405.525 85.4412 385.276 85.4412C364.777 85.4412 349.028 101.949 349.028 123.965ZM454.018 123.965C454.018 161.993 427.024 191.01 391.775 191.01C372.776 191.01 357.027 181.253 350.028 169.999V240.547H317.029V59.9224H350.028V77.9315C357.027 66.6774 372.776 56.9202 391.775 56.9202C427.024 56.9202 454.018 86.1875 454.018 123.965Z" fill="black"/>
<path d="M562.513 59.9223H595.511V188.012H562.513V173.001C555.763 183.259 542.514 191.01 526.269 191.01C496.77 191.01 480.021 170.75 480.021 142.479V59.9223H513.015V133.973C513.015 149.234 521.015 161.743 537.514 161.743C553.263 161.743 562.513 148.984 562.513 133.973V59.9223Z" fill="black"/>
<path d="M689.75 162.489C697 162.489 703.5 160.238 709 155.739V185.006C702.504 188.759 692.755 191.01 683.251 191.01C657.256 191.01 638.007 175.753 638.007 146.478V86.1875H617.008V59.9182H638.007V30.1504L671.006 19.6427V59.9182H705.254V86.1875H671.006V142.975C671.006 155.739 678.005 162.489 689.75 162.489Z" fill="black"/>
<path d="M73.8961 59.9223L36.9481 123.965L0 59.9223H73.8961Z" fill="black"/>
<path d="M147.788 59.9223L110.84 123.965L73.8919 59.9223H147.788Z" fill="black"/>
<path d="M110.84 123.965L73.8918 188.008L36.9481 123.965H110.84Z" fill="black"/>
<path d="M73.8961 188.012L36.9481 252.055L0 188.012H73.8961Z" fill="black"/>
<path d="M857.832 181.5C872.582 181.5 885.082 176.5 894.832 166.25V180.5C885.082 188.25 871.582 193 857.582 193C821.582 193 792.332 163.5 792.332 127.25C792.332 90.9998 821.582 61.4998 857.582 61.4998C871.582 61.4998 885.082 66.2498 894.832 73.9998V88.2498C885.082 77.9998 872.582 72.9998 857.832 72.9998C828.332 72.9998 804.582 96.9998 804.582 127.25C804.582 157.5 828.332 181.5 857.832 181.5Z" fill="black"/>
<path d="M931.274 -0.000244141H943.774V190H931.274V-0.000244141Z" fill="black"/>
<path d="M1044.83 193C1009.33 193 980.082 163.5 980.082 127.25C980.082 90.9998 1009.33 61.4998 1044.83 61.4998C1080.33 61.4998 1109.58 90.9998 1109.58 127.25C1109.58 163.5 1080.33 193 1044.83 193ZM1044.83 72.7498C1015.83 72.7498 992.582 96.9998 992.582 127.25C992.582 157.5 1015.83 181.75 1044.83 181.75C1073.83 181.75 1097.08 157.5 1097.08 127.25C1097.08 96.9998 1073.83 72.7498 1044.83 72.7498Z" fill="black"/>
<path d="M1231.62 140.75V64.4998H1244.12V190H1231.62V167.25C1225.37 182 1209.62 193 1190.37 193C1160.37 193 1144.87 170.25 1144.87 143.5V64.4998H1157.37V141C1157.37 163.75 1169.12 181.5 1194.12 181.5C1216.62 181.5 1231.62 163.5 1231.62 140.75Z" fill="black"/>
<path d="M1344.36 61.4998C1367.61 61.4998 1389.86 76.7498 1397.36 96.9998V-0.000244141H1409.86V190H1397.36V157.5C1389.86 177.75 1367.61 193 1344.36 193C1307.86 193 1280.61 163.25 1280.61 127.25C1280.61 91.2498 1307.86 61.4998 1344.36 61.4998ZM1345.61 72.7498C1316.61 72.7498 1293.11 97.2498 1293.11 127.25C1293.11 157.25 1316.61 181.75 1345.61 181.75C1374.36 181.75 1397.86 157.25 1397.86 127.25C1397.86 97.2498 1374.36 72.7498 1345.61 72.7498Z" fill="black"/>
</svg>
